<?xml version="1.0" encoding="utf-8"?>
<!-- Generator: Adobe Illustrator 19.0.0, SVG Export Plug-In . SVG Version: 6.00 Build 0)  -->
<svg version="1.1" id="Layer_1" xmlns="http://www.w3.org/2000/svg" xmlns:xlink="http://www.w3.org/1999/xlink" x="0px" y="0px"
	 viewBox="0 0 64.3 56.3" style="enable-background:new 0 0 64.3 56.3;" xml:space="preserve">
<path id="XMLID_3_" style="fill:#6AE5DB;" d="M32.1,35.2c-0.8,0-1.5-0.3-2.1-0.9L0.9,5.2C-0.3,4-0.3,2.1,0.9,1C2-0.2,4-0.2,5.1,1l27,27L59.2,0.9
	c1.2-1.2,3.1-1.2,4.2,0c1.2,1.2,1.2,3.1,0,4.2L34.3,34.3C33.7,34.9,32.9,35.2,32.1,35.2z"/>
<path id="XMLID_4_" style="fill:#6AE5DB;" d="M32.1,56.3c-0.8,0-1.5-0.3-2.1-0.9L0.9,26.2c-1.2-1.2-1.2-3.1,0-4.2C2,20.8,4,20.8,5.1,22l27,27l27.1-27.1
	c1.2-1.2,3.1-1.2,4.2,0c1.2,1.2,1.2,3.1,0,4.2L34.3,55.4C33.7,56,32.9,56.3,32.1,56.3z"/>
</svg>
